name C:\Users\tom_v\MusculoskeletalSpecialization_revisited\Results\Case_16\motion.mot
datacolumns 32
datarows 7
range 0.00000000 0.03076306
endheader 
time	pelvis_tilt	pelvis_list	pelvis_rotation	pelvis_tx	pelvis_ty	pelvis_tz	hip_flexion_r	hip_adduction_r	hip_rotation_r	knee_angle_r	ankle_angle_r	subtalar_angle_r	mtp_angle_r	hip_flexion_l	hip_adduction_l	hip_rotation_l	knee_angle_l	ankle_angle_l	subtalar_angle_l	mtp_angle_l	lumbar_extension	lumbar_bending	lumbar_rotation	arm_flex_r	arm_add_r	arm_rot_r	elbow_flex_r	arm_flex_l	arm_add_l	arm_rot_l	elbow_flex_l	
          0.00000000	         -6.57171735	         -1.23667707	         -0.99887311	          0.00000000	          0.93689189	          0.00019783	         39.28054761	          7.01540214	          3.68576399	        -35.14071629	          8.89365267	          0.99038162	          0.62603770	          1.71159532	          1.07590142	          0.42362460	        -47.49198136	         -3.85910773	          9.23473494	         16.22027340	        -10.68333090	          3.65139553	         -3.07617021	          5.37040313	         -2.20655013	          0.72141047	         44.02594519	         14.22143712	         -1.55194759	          2.76756067	          4.61152796	
          0.00512718	         -6.53081609	         -1.19586546	         -1.00130899	          0.01757464	          0.93448533	          0.00039576	         38.67419931	          7.19962310	          3.99036225	        -36.14989531	          9.79668496	          0.50276448	          0.70491925	          2.67979335	          1.05257308	          0.37190566	        -49.01567143	         -2.49341179	          9.04825033	         15.19285594	        -10.62283938	          3.65802045	         -2.98888851	          5.83070301	         -2.07396598	          0.74994694	         42.52542148	         13.72843833	         -1.70266779	          2.96876187	          5.76716881	
          0.01025435	         -6.49307080	         -1.16045864	         -1.00334938	          0.03501039	          0.93213277	          0.00058283	         38.08075746	          7.41150291	          4.31583070	        -37.20437096	         11.06240267	          0.01243362	          0.98506428	          3.73530051	          1.03263577	          0.31306243	        -50.49407046	         -1.03738086	          8.81316510	         14.22946474	        -10.57904715	          3.66830693	         -2.88890305	          6.34770524	         -1.93765207	          0.77483576	         40.91726706	         13.20862552	         -1.86466920	          3.12619158	          7.08592731	
          0.01538153	         -6.45957761	         -1.13783968	         -1.00173793	          0.05228762	          0.92992937	          0.00076575	         37.48811885	          7.65810942	          4.66633276	        -38.26669954	         12.53321197	         -0.48065557	          1.45330988	          4.87156041	          1.01380276	          0.26523448	        -51.90413196	          0.48687540	          8.53599416	         13.32589184	        -10.55376601	          3.68630364	         -2.77850549	          6.93019216	         -1.79617896	          0.79909047	         39.18163403	         12.66756435	         -2.03690516	          3.23765036	          8.56156852	
          0.02050871	         -6.43106465	         -1.12253766	         -0.99442220	          0.06941459	          0.92794973	          0.00094452	         36.84948880	          7.91718075	          5.02420433	        -39.23337817	         13.94997832	         -1.00250910	          2.06176936	          6.07566753	          1.00460205	          0.23361079	        -53.21575849	          2.06942278	          8.22062719	         12.47797594	        -10.54499290	          3.70207368	         -2.65894484	          7.57666328	         -1.64811241	          0.82198998	         37.31029370	         12.10933225	         -2.21789288	          3.30434657	         10.18240821	
          0.02563588	         -6.40815042	         -1.11103638	         -0.98102381	          0.08640322	          0.92624437	          0.00111961	         36.13633702	          8.17278546	          5.38045849	        -40.05500649	         15.27057820	         -1.53262900	          2.77308242	          7.33742153	          1.00874727	          0.21596137	        -54.41233920	          3.70023183	          7.87389941	         11.68249295	        -10.55060742	          3.70928113	         -2.52975180	          8.28146901	         -1.49346981	          0.84137322	         35.30749042	         11.53749147	         -2.40508391	          3.32778793	         11.93536824	
          0.03076306	         -6.39117087	         -1.09998112	         -0.96209935	          0.10326162	          0.92484199	          0.00129080	         35.34387521	          8.41378907	          5.72845419	        -40.72092699	         16.47340210	         -2.05605511	          3.55727287	          8.64952884	          1.02967242	          0.20932514	        -55.48853484	          5.36160126	          7.50293706	         10.93628206	        -10.56956444	          3.70307435	         -2.39058102	          9.03731699	         -1.33290732	          0.85441210	         33.18740792	         10.95565242	         -2.59580821	          3.30944303	         13.80702892	
